<svg xmlns="http://www.w3.org/2000/svg" xmlns:xlink="http://www.w3.org/1999/xlink" version="1.1" data-diagram-type="SEQUENCE" style="width:1481px;height:1388px;background:#FFFFFF;" width="1481px" height="1388px" viewBox="0 0 1481 1388" zoomAndPan="magnify" preserveAspectRatio="none" contentStyleType="text/css"><?plantuml 1.2026.8?><defs/><g font-family="sans-serif" lengthAdjust="spacing"><g class="title" data-source-line="1"><text x="571.182" y="28.535" fill="#000" font-size="14" textLength="337.271" font-weight="700">Current snapshot - one fetch-and-save action</text></g><rect x="13" y="396.881" width="1448.636" height="956.826" fill="none" style="stroke:#000;stroke-width:1.5;"/><rect x="700.56" y="505.768" width="629.193" height="248.484" fill="none" style="stroke:#000;stroke-width:1.5;"/><rect x="719.56" y="654.32" width="469.521" height="85.932" fill="none" style="stroke:#000;stroke-width:1.5;"/><rect x="32" y="772.252" width="1404.636" height="567.455" fill="none" style="stroke:#000;stroke-width:1.5;"/><rect x="51" y="968.07" width="1360.636" height="357.637" fill="none" style="stroke:#000;stroke-width:1.5;"/><g><title>User</title><rect x="63.5" y="126.465" width="8" height="1251.242" fill="#000" fill-opacity="0"/><line x1="67" y1="126.465" x2="67" y2="1377.707" style="stroke:#181818;stroke-width:0.5;stroke-dasharray:5,5;"/></g><g><title>React app</title><rect x="362.557" y="126.465" width="8" height="1251.242" fill="#000" fill-opacity="0"/><line x1="366.057" y1="126.465" x2="366.057" y2="1377.707" style="stroke:#181818;stroke-width:0.5;stroke-dasharray:5,5;"/></g><g><title>Single Lambda backend</title><rect x="732.06" y="126.465" width="8" height="1251.242" fill="#000" fill-opacity="0"/><line x1="735.56" y1="126.465" x2="735.56" y2="1377.707" style="stroke:#181818;stroke-width:0.5;stroke-dasharray:5,5;"/></g><g><title>AWS KMS</title><rect x="1072.621" y="126.465" width="8" height="1251.242" fill="#000" fill-opacity="0"/><line x1="1076.121" y1="126.465" x2="1076.121" y2="1377.707" style="stroke:#181818;stroke-width:0.5;stroke-dasharray:5,5;"/></g><g><title>Trading 212</title><rect x="1169.581" y="126.465" width="8" height="1251.242" fill="#000" fill-opacity="0"/><line x1="1173.081" y1="126.465" x2="1173.081" y2="1377.707" style="stroke:#181818;stroke-width:0.5;stroke-dasharray:5,5;"/></g><g><title>Single DynamoDB table</title><rect x="1310.252" y="126.465" width="8" height="1251.242" fill="#000" fill-opacity="0"/><line x1="1313.752" y1="126.465" x2="1313.752" y2="1377.707" style="stroke:#181818;stroke-width:0.5;stroke-dasharray:5,5;"/></g><text x="48.817" y="123.512" fill="#000" font-size="14" textLength="30.365">User</text><ellipse cx="67" cy="58.477" rx="8" ry="8" fill="#E2E2F0" style="stroke:#181818;stroke-width:0.5;"/><path d="M67,66.477 L67,93.477 M54,74.477 L80,74.477 M67,93.477 L54,108.477 M67,93.477 L80,108.477" style="stroke:#181818;stroke-width:0.5;" fill="none"/><rect x="325.769" y="94.977" width="80.575" height="30.488" fill="#E2E2F0" style="stroke:#181818;stroke-width:0.5;" rx="2.5" ry="2.5"/><text x="332.769" y="115.512" fill="#000" font-size="14" textLength="66.575">React app</text><rect x="648.295" y="94.977" width="174.528" height="30.488" fill="#E2E2F0" style="stroke:#181818;stroke-width:0.5;" rx="2.5" ry="2.5"/><text x="655.295" y="115.512" fill="#000" font-size="14" textLength="160.528">Single Lambda backend</text><rect x="1037.949" y="94.977" width="76.344" height="30.488" fill="#E2E2F0" style="stroke:#181818;stroke-width:0.5;" rx="2.5" ry="2.5"/><text x="1044.949" y="115.512" fill="#000" font-size="14" textLength="62.344">AWS KMS</text><rect x="1124.293" y="94.977" width="97.576" height="30.488" fill="#E2E2F0" style="stroke:#181818;stroke-width:0.5;" rx="2.5" ry="2.5"/><text x="1131.293" y="115.512" fill="#000" font-size="14" textLength="83.576">Trading 212</text><text x="1231.869" y="107.023" fill="#000" font-size="14" textLength="157.767">Single DynamoDB table</text><text x="1266.671" y="123.512" fill="#000" font-size="14" textLength="88.163">via ElectroDB</text><path d="M1295.752,57.488 C1295.752,47.488 1313.752,47.488 1313.752,47.488 C1313.752,47.488 1331.752,47.488 1331.752,57.488 L1331.752,83.488 C1331.752,93.488 1313.752,93.488 1313.752,93.488 C1313.752,93.488 1295.752,93.488 1295.752,83.488 L1295.752,57.488" style="stroke:#181818;stroke-width:0.5;" fill="#E2E2F0"/><path d="M1295.752,57.488 C1295.752,67.488 1313.752,67.488 1313.752,67.488 C1313.752,67.488 1331.752,67.488 1331.752,57.488" style="stroke:#181818;stroke-width:0.5;" fill="none"/><polygon points="354.057,151.775,364.057,155.775,354.057,159.775,358.057,155.775" fill="#181818" style="stroke:#181818;stroke-width:1;stroke-linejoin:miter;stroke-miterlimit:10;"/><line x1="67" y1="155.775" x2="360.057" y2="155.775" style="stroke:#181818;stroke-width:1;"/><text x="74" y="151.033" fill="#000" font-size="13" textLength="275.057">Enter balances for current month YYYY-MM</text><polygon points="354.057,181.086,364.057,185.086,354.057,189.086,358.057,185.086" fill="#181818" style="stroke:#181818;stroke-width:1;stroke-linejoin:miter;stroke-miterlimit:10;"/><line x1="67" y1="185.086" x2="360.057" y2="185.086" style="stroke:#181818;stroke-width:1;"/><text x="74" y="180.344" fill="#000" font-size="13" textLength="105.32">Record snapshot</text><polygon points="723.56,225.707,733.56,229.707,723.56,233.707,727.56,229.707" fill="#181818" style="stroke:#181818;stroke-width:1;stroke-linejoin:miter;stroke-miterlimit:10;"/><line x1="366.057" y1="229.707" x2="729.56" y2="229.707" style="stroke:#181818;stroke-width:1;"/><text x="373.057" y="209.654" fill="#000" font-size="13" textLength="345.503">Month, balances, note, operation ID, expected revision</text><text x="373.057" y="224.965" fill="#000" font-size="13" textLength="326.365">Session cookie; replacement confirmation if needed</text><polygon points="1301.752,255.018,1311.752,259.018,1301.752,263.018,1305.752,259.018" fill="#181818" style="stroke:#181818;stroke-width:1;stroke-linejoin:miter;stroke-miterlimit:10;"/><line x1="735.56" y1="259.018" x2="1307.752" y2="259.018" style="stroke:#181818;stroke-width:1;"/><text x="742.56" y="254.275" fill="#000" font-size="13" textLength="319.351">Validate hashed session token and user ownership</text><polygon points="746.56,284.328,736.56,288.328,746.56,292.328,742.56,288.328" fill="#181818" style="stroke:#181818;stroke-width:1;stroke-linejoin:miter;stroke-miterlimit:10;"/><line x1="740.56" y1="288.328" x2="1312.752" y2="288.328" style="stroke:#181818;stroke-width:1;stroke-dasharray:2,2;"/><text x="752.56" y="283.586" fill="#000" font-size="13" textLength="295.229">Session, accounts and existing month/revision</text><path d="M655.986,301.328 L655.986,387.328 L1392.986,387.328 L1392.986,311.328 L1382.986,301.328 L655.986,301.328" style="stroke:#181818;stroke-width:0.5;" fill="#FEFFDD"/><path d="M1382.986,301.328 L1382.986,311.328 L1392.986,311.328 L1382.986,301.328" style="stroke:#181818;stroke-width:0.5;" fill="#FEFFDD"/><text x="856.885" y="318.896" fill="#000" font-size="13" textLength="236.412">Expired/invalid sessions are rejected.</text><text x="856.885" y="334.207" fill="#000" font-size="13" textLength="310.388">Duplicate-save detection must return an existing</text><text x="856.885" y="349.518" fill="#000" font-size="13" textLength="234.952">saved result without recording again.</text><text x="856.885" y="364.828" fill="#000" font-size="13" textLength="326.542">Read permanent operation receipt by ID and digest.</text><text x="856.885" y="380.139" fill="#000" font-size="13" textLength="320.036">Atomic write: active snapshot + revision + receipt.</text><path d="M13,396.881 L75.139,396.881 L75.139,404.191 L65.139,414.191 L13,414.191 L13,396.881" style="stroke:#000;stroke-width:1.5;" fill="#EEE"/><rect x="13" y="396.881" width="1448.636" height="956.826" fill="none" style="stroke:#000;stroke-width:1.5;"/><text x="28" y="410.449" fill="#000" font-size="13" textLength="17.139" font-weight="700">alt</text><text x="90.139" y="409.516" fill="#000" font-size="11" textLength="340.833" font-weight="700">[Existing month not confirmed or expected revision is stale]</text><polygon points="377.057,441.502,367.057,445.502,377.057,449.502,373.057,445.502" fill="#181818" style="stroke:#181818;stroke-width:1;stroke-linejoin:miter;stroke-miterlimit:10;"/><line x1="371.057" y1="445.502" x2="734.56" y2="445.502" style="stroke:#181818;stroke-width:1;stroke-dasharray:2,2;"/><text x="383.057" y="440.76" fill="#000" font-size="13" textLength="284.089">Replacement confirmation or reload required</text><polygon points="78,470.813,68,474.813,78,478.813,74,474.813" fill="#181818" style="stroke:#181818;stroke-width:1;stroke-linejoin:miter;stroke-miterlimit:10;"/><line x1="72" y1="474.813" x2="365.057" y2="474.813" style="stroke:#181818;stroke-width:1;stroke-dasharray:2,2;"/><text x="84" y="470.07" fill="#000" font-size="13" textLength="268.772">Warn before replacing month; allow cancel</text><line x1="13" y1="483.813" x2="1461.636" y2="483.813" style="stroke:#000;stroke-width:1;stroke-dasharray:2,2;"/><text x="18" y="496.447" fill="#000" font-size="11" textLength="341.967" font-weight="700">[New month or confirmed replacement of expected revision]</text><path d="M700.56,505.768 L767.745,505.768 L767.745,513.078 L757.745,523.078 L700.56,523.078 L700.56,505.768" style="stroke:#000;stroke-width:1.5;" fill="#EEE"/><rect x="700.56" y="505.768" width="629.193" height="248.484" fill="none" style="stroke:#000;stroke-width:1.5;"/><text x="715.56" y="519.336" fill="#000" font-size="13" textLength="22.185" font-weight="700">opt</text><text x="782.745" y="518.402" fill="#000" font-size="11" textLength="188.778" font-weight="700">[Connected investment accounts]</text><polygon points="1301.752,550.389,1311.752,554.389,1301.752,558.389,1305.752,554.389" fill="#181818" style="stroke:#181818;stroke-width:1;stroke-linejoin:miter;stroke-miterlimit:10;"/><line x1="735.56" y1="554.389" x2="1307.752" y2="554.389" style="stroke:#181818;stroke-width:1;"/><text x="742.56" y="549.646" fill="#000" font-size="13" textLength="328.974">Read connection identities and credential ciphertext</text><polygon points="746.56,579.699,736.56,583.699,746.56,587.699,742.56,583.699" fill="#181818" style="stroke:#181818;stroke-width:1;stroke-linejoin:miter;stroke-miterlimit:10;"/><line x1="740.56" y1="583.699" x2="1312.752" y2="583.699" style="stroke:#181818;stroke-width:1;stroke-dasharray:2,2;"/><text x="752.56" y="578.957" fill="#000" font-size="13" textLength="135.364">Encrypted credentials</text><polygon points="1064.121,609.01,1074.121,613.01,1064.121,617.01,1068.121,613.01" fill="#181818" style="stroke:#181818;stroke-width:1;stroke-linejoin:miter;stroke-miterlimit:10;"/><line x1="735.56" y1="613.01" x2="1070.121" y2="613.01" style="stroke:#181818;stroke-width:1;"/><text x="742.56" y="608.268" fill="#000" font-size="13" textLength="232.927">Decrypt credentials for provider calls</text><polygon points="746.56,638.32,736.56,642.32,746.56,646.32,742.56,642.32" fill="#181818" style="stroke:#181818;stroke-width:1;stroke-linejoin:miter;stroke-miterlimit:10;"/><line x1="740.56" y1="642.32" x2="1075.121" y2="642.32" style="stroke:#181818;stroke-width:1;stroke-dasharray:2,2;"/><text x="752.56" y="637.578" fill="#000" font-size="13" textLength="195.406">Credentials for server-side use</text><path d="M719.56,654.32 L794.006,654.32 L794.006,661.631 L784.006,671.631 L719.56,671.631 L719.56,654.32" style="stroke:#000;stroke-width:1.5;" fill="#EEE"/><rect x="719.56" y="654.32" width="469.521" height="85.932" fill="none" style="stroke:#000;stroke-width:1.5;"/><text x="734.56" y="667.889" fill="#000" font-size="13" textLength="29.447" font-weight="700">loop</text><text x="809.006" y="666.955" fill="#000" font-size="11" textLength="143.483" font-weight="700">[Each connected account]</text><polygon points="1161.081,698.941,1171.081,702.941,1161.081,706.941,1165.081,702.941" fill="#181818" style="stroke:#181818;stroke-width:1;stroke-linejoin:miter;stroke-miterlimit:10;"/><line x1="735.56" y1="702.941" x2="1167.081" y2="702.941" style="stroke:#181818;stroke-width:1;"/><text x="742.56" y="698.199" fill="#000" font-size="13" textLength="235.974">Fetch account summary and holdings</text><polygon points="746.56,728.252,736.56,732.252,746.56,736.252,742.56,732.252" fill="#181818" style="stroke:#181818;stroke-width:1;stroke-linejoin:miter;stroke-miterlimit:10;"/><line x1="740.56" y1="732.252" x2="1172.081" y2="732.252" style="stroke:#181818;stroke-width:1;stroke-dasharray:2,2;"/><text x="752.56" y="727.51" fill="#000" font-size="13" textLength="129.41">GBP values or failure</text><path d="M32,772.252 L94.139,772.252 L94.139,779.563 L84.139,789.563 L32,789.563 L32,772.252" style="stroke:#000;stroke-width:1.5;" fill="#EEE"/><rect x="32" y="772.252" width="1404.636" height="567.455" fill="none" style="stroke:#000;stroke-width:1.5;"/><text x="47" y="785.82" fill="#000" font-size="13" textLength="17.139" font-weight="700">alt</text><text x="109.139" y="784.887" fill="#000" font-size="11" textLength="301.823" font-weight="700">[Required credential access or provider request fails]</text><polygon points="377.057,816.873,367.057,820.873,377.057,824.873,373.057,820.873" fill="#181818" style="stroke:#181818;stroke-width:1;stroke-linejoin:miter;stroke-miterlimit:10;"/><line x1="371.057" y1="820.873" x2="734.56" y2="820.873" style="stroke:#181818;stroke-width:1;stroke-dasharray:2,2;"/><text x="383.057" y="816.131" fill="#000" font-size="13" textLength="228.617">Recording failed; no snapshot saved</text><polygon points="78,846.184,68,850.184,78,854.184,74,850.184" fill="#181818" style="stroke:#181818;stroke-width:1;stroke-linejoin:miter;stroke-miterlimit:10;"/><line x1="72" y1="850.184" x2="365.057" y2="850.184" style="stroke:#181818;stroke-width:1;stroke-dasharray:2,2;"/><text x="84" y="845.441" fill="#000" font-size="13" textLength="230.839">Keep current form values; offer retry</text><line x1="32" y1="859.184" x2="1436.636" y2="859.184" style="stroke:#000;stroke-width:1;stroke-dasharray:2,2;"/><text x="37" y="871.818" fill="#000" font-size="11" textLength="159.307" font-weight="700">[All required reads succeed]</text><line x1="735.56" y1="898.449" x2="777.56" y2="898.449" style="stroke:#181818;stroke-width:1;"/><line x1="777.56" y1="898.449" x2="777.56" y2="911.449" style="stroke:#181818;stroke-width:1;"/><line x1="736.56" y1="911.449" x2="777.56" y2="911.449" style="stroke:#181818;stroke-width:1;"/><polygon points="746.56,907.449,736.56,911.449,746.56,915.449,742.56,911.449" fill="#181818" style="stroke:#181818;stroke-width:1;stroke-linejoin:miter;stroke-miterlimit:10;"/><text x="742.56" y="893.707" fill="#000" font-size="13" textLength="326.562">Calculate totals for YYYY-MM; set audit timestamps</text><polygon points="1301.752,952.07,1311.752,956.07,1301.752,960.07,1305.752,956.07" fill="#181818" style="stroke:#181818;stroke-width:1;stroke-linejoin:miter;stroke-miterlimit:10;"/><line x1="735.56" y1="956.07" x2="1307.752" y2="956.07" style="stroke:#181818;stroke-width:1;"/><text x="742.56" y="936.018" fill="#000" font-size="13" textLength="289.098">Atomically save month with expected revision</text><text x="742.56" y="951.328" fill="#000" font-size="13" textLength="271.292">Preserve old revision; enforce idempotency</text><path d="M51,968.07 L113.139,968.07 L113.139,975.381 L103.139,985.381 L51,985.381 L51,968.07" style="stroke:#000;stroke-width:1.5;" fill="#EEE"/><rect x="51" y="968.07" width="1360.636" height="357.637" fill="none" style="stroke:#000;stroke-width:1.5;"/><text x="66" y="981.639" fill="#000" font-size="13" textLength="17.139" font-weight="700">alt</text><text x="128.139" y="980.705" fill="#000" font-size="11" textLength="114.179" font-weight="700">[Saved successfully]</text><polygon points="746.56,1012.691,736.56,1016.691,746.56,1020.691,742.56,1016.691" fill="#181818" style="stroke:#181818;stroke-width:1;stroke-linejoin:miter;stroke-miterlimit:10;"/><line x1="740.56" y1="1016.691" x2="1312.752" y2="1016.691" style="stroke:#181818;stroke-width:1;stroke-dasharray:2,2;"/><text x="752.56" y="1011.949" fill="#000" font-size="13" textLength="98.046">Saved snapshot</text><polygon points="377.057,1042.002,367.057,1046.002,377.057,1050.002,373.057,1046.002" fill="#181818" style="stroke:#181818;stroke-width:1;stroke-linejoin:miter;stroke-miterlimit:10;"/><line x1="371.057" y1="1046.002" x2="734.56" y2="1046.002" style="stroke:#181818;stroke-width:1;stroke-dasharray:2,2;"/><text x="383.057" y="1041.26" fill="#000" font-size="13" textLength="237.485">Saved balances, total and timestamps</text><polygon points="78,1071.313,68,1075.313,78,1079.313,74,1075.313" fill="#181818" style="stroke:#181818;stroke-width:1;stroke-linejoin:miter;stroke-miterlimit:10;"/><line x1="72" y1="1075.313" x2="365.057" y2="1075.313" style="stroke:#181818;stroke-width:1;stroke-dasharray:2,2;"/><text x="84" y="1070.57" fill="#000" font-size="13" textLength="244.213">Show saved result and updated history</text><polygon points="723.56,1100.623,733.56,1104.623,723.56,1108.623,727.56,1104.623" fill="#181818" style="stroke:#181818;stroke-width:1;stroke-linejoin:miter;stroke-miterlimit:10;"/><line x1="366.057" y1="1104.623" x2="729.56" y2="1104.623" style="stroke:#181818;stroke-width:1;"/><text x="373.057" y="1099.881" fill="#000" font-size="13" textLength="299.178">Start/resume bounded provider-history refresh</text><path d="M307.281,1117.623 L307.281,1157.623 L794.281,1157.623 L794.281,1127.623 L784.281,1117.623 L307.281,1117.623" style="stroke:#181818;stroke-width:0.5;" fill="#FEFFDD"/><path d="M784.281,1117.623 L784.281,1127.623 L794.281,1127.623 L784.281,1117.623" style="stroke:#181818;stroke-width:0.5;" fill="#FEFFDD"/><text x="386.934" y="1135.191" fill="#000" font-size="13" textLength="303.126">Save is already committed. Inferred metrics wait</text><text x="386.934" y="1150.502" fill="#000" font-size="13" textLength="318.748">for complete history; valuation failure blocks save.</text><line x1="51" y1="1164.244" x2="1411.636" y2="1164.244" style="stroke:#000;stroke-width:1;stroke-dasharray:2,2;"/><text x="56" y="1176.879" fill="#000" font-size="11" textLength="170.382" font-weight="700">[Month changed concurrently]</text><polygon points="377.057,1199.51,367.057,1203.51,377.057,1207.51,373.057,1203.51" fill="#181818" style="stroke:#181818;stroke-width:1;stroke-linejoin:miter;stroke-miterlimit:10;"/><line x1="371.057" y1="1203.51" x2="734.56" y2="1203.51" style="stroke:#181818;stroke-width:1;stroke-dasharray:2,2;"/><text x="383.057" y="1198.768" fill="#000" font-size="13" textLength="271.686">Conflict; reload and reconfirm replacement</text><line x1="51" y1="1212.51" x2="1411.636" y2="1212.51" style="stroke:#000;stroke-width:1;stroke-dasharray:2,2;"/><text x="56" y="1225.145" fill="#000" font-size="11" textLength="184.626" font-weight="700">[Save fails or result is uncertain]</text><polygon points="377.057,1247.775,367.057,1251.775,377.057,1255.775,373.057,1251.775" fill="#181818" style="stroke:#181818;stroke-width:1;stroke-linejoin:miter;stroke-miterlimit:10;"/><line x1="371.057" y1="1251.775" x2="734.56" y2="1251.775" style="stroke:#181818;stroke-width:1;stroke-dasharray:2,2;"/><text x="383.057" y="1247.033" fill="#000" font-size="13" textLength="250.955">No confirmed result; safe retry required</text><path d="M655.986,1264.775 L655.986,1319.775 L1392.986,1319.775 L1392.986,1274.775 L1382.986,1264.775 L655.986,1264.775" style="stroke:#181818;stroke-width:0.5;" fill="#FEFFDD"/><path d="M1382.986,1264.775 L1382.986,1274.775 L1392.986,1274.775 L1382.986,1264.775" style="stroke:#181818;stroke-width:0.5;" fill="#FEFFDD"/><text x="875.014" y="1282.344" fill="#000" font-size="13" textLength="290.285">A lost response may follow a successful write.</text><text x="875.014" y="1297.654" fill="#000" font-size="13" textLength="250.453">Retrying must resolve that saved result,</text><text x="875.014" y="1312.965" fill="#000" font-size="13" textLength="253.214">not create another snapshot or revision.</text><?plantuml-src TLNRJYGt47tlhoZjQsP0sKT6YWGCYT265O8bgvNsnUEkeHtSTiTsCypVvrJrPMOWGK8qTbrF7PyghdYcwpub3eLoC5rkOg4bnS2qvMARfGdrCfjN9cEBYw5gN8sh6CiclbNvnONE9DDIRamTTouyqzRup1MiOwAdpAc2GN7MTGOfFZqmRiXqtISocPvkJsyV4G05_MdQJMreO-mBXrejB-_VcLv-VwGlTuzwYR-dbz-IgQMMpxz-LeDl-AXgKyp6P9xJhFV1j75zHJZt_3EyEaCtdcr9E5I_zLKbBT3oDvHA5tGJ2lxR66-2vGmO4jaHl3Q6qj0F_2plxawz7jZ6LC_mLZZ45Jh2tPsuBUQG2mgny89Ynya8tdIxNX2_TQYAQqhywZ9EVuP7pl91DiONnolSTDvORgKK6yFMfNRmTriAp3NNbIH4NlHxGNyPxu07KsDoWy1v35SY42VCd7hf8Eu2fzouheBNSYvwJBu09spiGydgmMyk5q5TeJYVQgsa8ugl20VlXM1ATFFMkSJrkGklKicK7u4IevU_jTqp6AxxpZkBIWSIrbnOUKXjdmiiIv-atZavNCHGeCgzBxHpfOczMCeCf3hpR5oGqA1YJS2vDK5GEq0EMtPTeSqUw6jhjNlcNCJfiiJMMTebL_X2tmIgcX_EB_E4z5F3d5NWi8wrCYZevWGbEP_cXQB1fm-p9fSf5-DPiii83xJwdv4ZIc8VZSJufnUSuVeqUifOB-Yx0MmR1e5vfCvSqegCzt57LWZfAyPhfg-y6-iLni_b7fCkRZ-MNaMWU1r368unRA2erXDnffv6Mkf8xE2WhTSmTiNnm32BLkJ0UC9BRpWLVYj2acDotWIRzftaEvWVvO5Mm6ZDQdHieg-vI_4LIT4aG10lCJ_4ldvd3Z31wsKMJSI3WRsFiQCROvkf3TGnDelRkGeH9CJxNIHskgVSjwr9UssrYLxOcjL9hGzL_75rJtWsFL113LlZV9yaDtWcN5EQFOoJFyOCUV3CwBXD8GXcea7oHu9DRqQkkLw1hGUkwpFxGAmlpDsiYO2e7IjTWI1RJLZIVY3LfVSpGV5XQl2yHuaQTSHfXDrustkHgnBBXFqejIiC0NpgQrUek1RDcBPxpwlXrMAaUorxvB9emtzfwpsqGmPBcC5yl0AyI6jPIDbsUCx1xf56m7vKnT7YSzxsIADZEzNCmMRQ0JCN9h27-yCUq4wL2YTTlSVxiS5JFL4y5UzEn1qiWjR4j9_zvc8AjkMvEBHC6v0F-s4cnNBqGi0jJ1hrFeZu4pHSjZ7fZvGj2cMyJ70FrhUjAoBUT1imS9bjYvaxcsbdN1dTT7F6jlCiEsZ8jrAg318safesFjgNh0sUgUkifVWK4kd-9DkOyCmg7IFtnX6SG0mbscAPbDKaZmALB0RLisCrcw9hT_es1b5LWD5jZncbWZtoCSdNU2AGuW6AcYqFr3-Mv6DK3wjH8q97TBtb3aiHV3LxGAQoR8vuDgoXiz7fGUAhZ0-hCKUFwajZoWb15gEvRXuC3HKOV4DD3szRcnru_n7sKMNm-oy0?></g></svg>