<svg xmlns="http://www.w3.org/2000/svg" xmlns:xlink="http://www.w3.org/1999/xlink" version="1.1" data-diagram-type="SEQUENCE" style="width:1222px;height:1156px;background:#FFFFFF;" width="1222px" height="1156px" viewBox="0 0 1222 1156" zoomAndPan="magnify" preserveAspectRatio="none" contentStyleType="text/css"><?plantuml 1.2026.8?><defs/><g font-family="sans-serif" lengthAdjust="spacing"><g class="title" data-source-line="1"><text x="452.522" y="28.535" fill="#000" font-size="14" textLength="315.731" font-weight="700">Historical entry and recorded-history reads</text></g><rect x="13" y="488.502" width="1189.776" height="301.705" fill="none" style="stroke:#000;stroke-width:1.5;"/><rect x="305.772" y="642.01" width="872.003" height="134.197" fill="none" style="stroke:#000;stroke-width:1.5;"/><g><title>User</title><rect x="25.5" y="126.465" width="8" height="1018.779" fill="#000" fill-opacity="0"/><line x1="29" y1="126.465" x2="29" y2="1145.244" style="stroke:#181818;stroke-width:0.5;stroke-dasharray:5,5;"/></g><g><title>React app</title><rect x="318.272" y="126.465" width="8" height="1018.779" fill="#000" fill-opacity="0"/><line x1="321.772" y1="126.465" x2="321.772" y2="1145.244" style="stroke:#181818;stroke-width:0.5;stroke-dasharray:5,5;"/></g><g><title>tRPC backend</title><rect x="725.455" y="126.465" width="8" height="1018.779" fill="#000" fill-opacity="0"/><line x1="728.955" y1="126.465" x2="728.955" y2="1145.244" style="stroke:#181818;stroke-width:0.5;stroke-dasharray:5,5;"/></g><g><title>DynamoDB</title><rect x="1158.276" y="126.465" width="8" height="1018.779" fill="#000" fill-opacity="0"/><line x1="1161.776" y1="126.465" x2="1161.776" y2="1145.244" style="stroke:#181818;stroke-width:0.5;stroke-dasharray:5,5;"/></g><text x="10.817" y="123.512" fill="#000" font-size="14" textLength="30.365">User</text><ellipse cx="29" cy="58.477" rx="8" ry="8" fill="#E2E2F0" style="stroke:#181818;stroke-width:0.5;"/><path d="M29,66.477 L29,93.477 M16,74.477 L42,74.477 M29,93.477 L16,108.477 M29,93.477 L42,108.477" style="stroke:#181818;stroke-width:0.5;" fill="none"/><rect x="281.485" y="94.977" width="80.575" height="30.488" fill="#E2E2F0" style="stroke:#181818;stroke-width:0.5;" rx="2.5" ry="2.5"/><text x="288.485" y="115.512" fill="#000" font-size="14" textLength="66.575">React app</text><rect x="675.385" y="78.488" width="107.14" height="46.977" fill="#E2E2F0" style="stroke:#181818;stroke-width:0.5;" rx="2.5" ry="2.5"/><text x="682.385" y="99.023" fill="#000" font-size="14" textLength="93.14">tRPC backend</text><text x="691.286" y="115.512" fill="#000" font-size="14" textLength="75.339">on Lambda</text><text x="1121.561" y="107.023" fill="#000" font-size="14" textLength="74.43">DynamoDB</text><text x="1114.694" y="123.512" fill="#000" font-size="14" textLength="88.163">via ElectroDB</text><path d="M1143.776,57.488 C1143.776,47.488 1161.776,47.488 1161.776,47.488 C1161.776,47.488 1179.776,47.488 1179.776,57.488 L1179.776,83.488 C1179.776,93.488 1161.776,93.488 1161.776,93.488 C1161.776,93.488 1143.776,93.488 1143.776,83.488 L1143.776,57.488" style="stroke:#181818;stroke-width:0.5;" fill="#E2E2F0"/><path d="M1143.776,57.488 C1143.776,67.488 1161.776,67.488 1161.776,67.488 C1161.776,67.488 1179.776,67.488 1179.776,57.488" style="stroke:#181818;stroke-width:0.5;" fill="none"/><polygon points="309.772,151.775,319.772,155.775,309.772,159.775,313.772,155.775" fill="#181818" style="stroke:#181818;stroke-width:1;stroke-linejoin:miter;stroke-miterlimit:10;"/><line x1="29" y1="155.775" x2="315.772" y2="155.775" style="stroke:#181818;stroke-width:1;"/><text x="36" y="151.033" fill="#000" font-size="13" textLength="112.823">Add a past month</text><polygon points="40,181.086,30,185.086,40,189.086,36,185.086" fill="#181818" style="stroke:#181818;stroke-width:1;stroke-linejoin:miter;stroke-miterlimit:10;"/><line x1="34" y1="185.086" x2="320.772" y2="185.086" style="stroke:#181818;stroke-width:1;stroke-dasharray:2,2;"/><text x="46" y="180.344" fill="#000" font-size="13" textLength="262.33">Choose month and enter historical values</text><path d="M-1.876,198.086 L-1.876,253.086 L759.124,253.086 L759.124,208.086 L749.124,198.086 L-1.876,198.086" style="stroke:#181818;stroke-width:0.5;" fill="#FEFFDD"/><path d="M749.124,198.086 L749.124,208.086 L759.124,208.086 L749.124,198.086" style="stroke:#181818;stroke-width:0.5;" fill="#FEFFDD"/><text x="245.836" y="215.654" fill="#000" font-size="13" textLength="196.841">Enter three GBP monthly totals:</text><text x="245.836" y="230.965" fill="#000" font-size="13" textLength="222.968">net cash, investments and pension.</text><text x="245.836" y="246.275" fill="#000" font-size="13" textLength="257.283">No individual account balances required.</text><polygon points="309.772,276.328,319.772,280.328,309.772,284.328,313.772,280.328" fill="#181818" style="stroke:#181818;stroke-width:1;stroke-linejoin:miter;stroke-miterlimit:10;"/><line x1="29" y1="280.328" x2="315.772" y2="280.328" style="stroke:#181818;stroke-width:1;"/><text x="36" y="275.586" fill="#000" font-size="13" textLength="201.125">Review and save historical entry</text><polygon points="716.955,320.949,726.955,324.949,716.955,328.949,720.955,324.949" fill="#181818" style="stroke:#181818;stroke-width:1;stroke-linejoin:miter;stroke-miterlimit:10;"/><line x1="321.772" y1="324.949" x2="722.955" y2="324.949" style="stroke:#181818;stroke-width:1;"/><text x="328.772" y="304.896" fill="#000" font-size="13" textLength="383.183">Submit YYYY-MM, totals, operation ID and expected revision</text><text x="328.772" y="320.207" fill="#000" font-size="13" textLength="228.389">Replacement confirmation if needed</text><line x1="728.955" y1="354.26" x2="770.955" y2="354.26" style="stroke:#181818;stroke-width:1;"/><line x1="770.955" y1="354.26" x2="770.955" y2="367.26" style="stroke:#181818;stroke-width:1;"/><line x1="729.955" y1="367.26" x2="770.955" y2="367.26" style="stroke:#181818;stroke-width:1;"/><polygon points="739.955,363.26,729.955,367.26,739.955,371.26,735.955,367.26" fill="#181818" style="stroke:#181818;stroke-width:1;stroke-linejoin:miter;stroke-miterlimit:10;"/><text x="735.955" y="349.518" fill="#000" font-size="13" textLength="281.607">Validate authenticated ownership and inputs</text><path d="M733.955,380.26 L733.955,420.26 L1044.955,420.26 L1044.955,390.26 L1034.955,380.26 L733.955,380.26" style="stroke:#181818;stroke-width:0.5;" fill="#FEFFDD"/><path d="M1034.955,380.26 L1034.955,390.26 L1044.955,390.26 L1034.955,380.26" style="stroke:#181818;stroke-width:0.5;" fill="#FEFFDD"/><text x="739.955" y="397.828" fill="#000" font-size="13" textLength="155.08">No Trading 212 request.</text><text x="739.955" y="413.139" fill="#000" font-size="13" textLength="290.996">Today's prices do not represent a past month.</text><polygon points="1149.776,443.191,1159.776,447.191,1149.776,451.191,1153.776,447.191" fill="#181818" style="stroke:#181818;stroke-width:1;stroke-linejoin:miter;stroke-miterlimit:10;"/><line x1="728.955" y1="447.191" x2="1155.776" y2="447.191" style="stroke:#181818;stroke-width:1;"/><text x="735.955" y="442.449" fill="#000" font-size="13" textLength="186.869">Read existing month/revision</text><polygon points="739.955,472.502,729.955,476.502,739.955,480.502,735.955,476.502" fill="#181818" style="stroke:#181818;stroke-width:1;stroke-linejoin:miter;stroke-miterlimit:10;"/><line x1="733.955" y1="476.502" x2="1160.776" y2="476.502" style="stroke:#181818;stroke-width:1;stroke-dasharray:2,2;"/><text x="745.955" y="471.76" fill="#000" font-size="13" textLength="158.71">Existing record or absent</text><path d="M13,488.502 L75.139,488.502 L75.139,495.813 L65.139,505.813 L13,505.813 L13,488.502" style="stroke:#000;stroke-width:1.5;" fill="#EEE"/><rect x="13" y="488.502" width="1189.776" height="301.705" fill="none" style="stroke:#000;stroke-width:1.5;"/><text x="28" y="502.07" fill="#000" font-size="13" textLength="17.139" font-weight="700">alt</text><text x="90.139" y="501.137" fill="#000" font-size="11" textLength="286.483" font-weight="700">[Existing month not confirmed or revision is stale]</text><polygon points="332.772,533.123,322.772,537.123,332.772,541.123,328.772,537.123" fill="#181818" style="stroke:#181818;stroke-width:1;stroke-linejoin:miter;stroke-miterlimit:10;"/><line x1="326.772" y1="537.123" x2="727.955" y2="537.123" style="stroke:#181818;stroke-width:1;stroke-dasharray:2,2;"/><text x="338.772" y="532.381" fill="#000" font-size="13" textLength="284.089">Replacement confirmation or reload required</text><polygon points="40,562.434,30,566.434,40,570.434,36,566.434" fill="#181818" style="stroke:#181818;stroke-width:1;stroke-linejoin:miter;stroke-miterlimit:10;"/><line x1="34" y1="566.434" x2="320.772" y2="566.434" style="stroke:#181818;stroke-width:1;stroke-dasharray:2,2;"/><text x="46" y="561.691" fill="#000" font-size="13" textLength="268.772">Warn before replacing month; allow cancel</text><line x1="13" y1="575.434" x2="1202.776" y2="575.434" style="stroke:#000;stroke-width:1;stroke-dasharray:2,2;"/><text x="18" y="588.068" fill="#000" font-size="11" textLength="223.185" font-weight="700">[New month or confirmed replacement]</text><polygon points="1149.776,626.01,1159.776,630.01,1149.776,634.01,1153.776,630.01" fill="#181818" style="stroke:#181818;stroke-width:1;stroke-linejoin:miter;stroke-miterlimit:10;"/><line x1="728.955" y1="630.01" x2="1155.776" y2="630.01" style="stroke:#181818;stroke-width:1;"/><text x="735.955" y="609.957" fill="#000" font-size="13" textLength="305.608">Atomically save YYYY-MM and audit timestamps</text><text x="735.955" y="625.268" fill="#000" font-size="13" textLength="408.821">Check expected revision; preserve old revision; deduplicate retry</text><path d="M305.772,642.01 L367.911,642.01 L367.911,649.32 L357.911,659.32 L305.772,659.32 L305.772,642.01" style="stroke:#000;stroke-width:1.5;" fill="#EEE"/><rect x="305.772" y="642.01" width="872.003" height="134.197" fill="none" style="stroke:#000;stroke-width:1.5;"/><text x="320.772" y="655.578" fill="#000" font-size="13" textLength="17.139" font-weight="700">alt</text><text x="382.911" y="654.645" fill="#000" font-size="11" textLength="170.382" font-weight="700">[Month changed concurrently]</text><polygon points="332.772,686.631,322.772,690.631,332.772,694.631,328.772,690.631" fill="#181818" style="stroke:#181818;stroke-width:1;stroke-linejoin:miter;stroke-miterlimit:10;"/><line x1="326.772" y1="690.631" x2="727.955" y2="690.631" style="stroke:#181818;stroke-width:1;stroke-dasharray:2,2;"/><text x="338.772" y="685.889" fill="#000" font-size="13" textLength="189.681">Conflict; reload and reconfirm</text><line x1="305.772" y1="699.631" x2="1177.776" y2="699.631" style="stroke:#000;stroke-width:1;stroke-dasharray:2,2;"/><text x="310.772" y="712.266" fill="#000" font-size="11" textLength="41.164" font-weight="700">[Saved]</text><polygon points="739.955,734.896,729.955,738.896,739.955,742.896,735.955,738.896" fill="#181818" style="stroke:#181818;stroke-width:1;stroke-linejoin:miter;stroke-miterlimit:10;"/><line x1="733.955" y1="738.896" x2="1160.776" y2="738.896" style="stroke:#181818;stroke-width:1;stroke-dasharray:2,2;"/><text x="745.955" y="734.154" fill="#000" font-size="13" textLength="136.938">Saved monthly record</text><polygon points="332.772,764.207,322.772,768.207,332.772,772.207,328.772,768.207" fill="#181818" style="stroke:#181818;stroke-width:1;stroke-linejoin:miter;stroke-miterlimit:10;"/><line x1="326.772" y1="768.207" x2="727.955" y2="768.207" style="stroke:#181818;stroke-width:1;stroke-dasharray:2,2;"/><text x="338.772" y="763.465" fill="#000" font-size="13" textLength="82.894">Confirmation</text><rect x="10" y="824.862" width="1201.776" height="3" fill="#EEE" style="stroke:#EEE;stroke-width:1;"/><line x1="10" y1="824.862" x2="1211.776" y2="824.862" style="stroke:#000;stroke-width:1;"/><line x1="10" y1="827.862" x2="1211.776" y2="827.862" style="stroke:#000;stroke-width:1;"/><rect x="527.7" y="814.207" width="166.375" height="23.311" fill="#EEE" style="stroke:#000;stroke-width:2;"/><text x="533.7" y="830.775" fill="#000" font-size="13" textLength="148.091" font-weight="700">Read recorded history</text><polygon points="309.772,864.828,319.772,868.828,309.772,872.828,313.772,868.828" fill="#181818" style="stroke:#181818;stroke-width:1;stroke-linejoin:miter;stroke-miterlimit:10;"/><line x1="29" y1="868.828" x2="315.772" y2="868.828" style="stroke:#181818;stroke-width:1;"/><text x="36" y="864.086" fill="#000" font-size="13" textLength="169.552">Open dashboard or history</text><polygon points="716.955,894.139,726.955,898.139,716.955,902.139,720.955,898.139" fill="#181818" style="stroke:#181818;stroke-width:1;stroke-linejoin:miter;stroke-miterlimit:10;"/><line x1="321.772" y1="898.139" x2="722.955" y2="898.139" style="stroke:#181818;stroke-width:1;"/><text x="328.772" y="893.396" fill="#000" font-size="13" textLength="154.407">Request recorded values</text><polygon points="1149.776,923.449,1159.776,927.449,1149.776,931.449,1153.776,927.449" fill="#181818" style="stroke:#181818;stroke-width:1;stroke-linejoin:miter;stroke-miterlimit:10;"/><line x1="728.955" y1="927.449" x2="1155.776" y2="927.449" style="stroke:#181818;stroke-width:1;"/><text x="735.955" y="922.707" fill="#000" font-size="13" textLength="206.997">Read this user's recorded history</text><polygon points="739.955,952.76,729.955,956.76,739.955,960.76,735.955,956.76" fill="#181818" style="stroke:#181818;stroke-width:1;stroke-linejoin:miter;stroke-miterlimit:10;"/><line x1="733.955" y1="956.76" x2="1160.776" y2="956.76" style="stroke:#181818;stroke-width:1;stroke-dasharray:2,2;"/><text x="745.955" y="952.018" fill="#000" font-size="13" textLength="87.782">Saved records</text><polygon points="332.772,982.07,322.772,986.07,332.772,990.07,328.772,986.07" fill="#181818" style="stroke:#181818;stroke-width:1;stroke-linejoin:miter;stroke-miterlimit:10;"/><line x1="326.772" y1="986.07" x2="727.955" y2="986.07" style="stroke:#181818;stroke-width:1;stroke-dasharray:2,2;"/><text x="338.772" y="981.328" fill="#000" font-size="13" textLength="248.581">Recorded values and YYYY-MM months</text><polygon points="40,1011.381,30,1015.381,40,1019.381,36,1015.381" fill="#181818" style="stroke:#181818;stroke-width:1;stroke-linejoin:miter;stroke-miterlimit:10;"/><line x1="34" y1="1015.381" x2="320.772" y2="1015.381" style="stroke:#181818;stroke-width:1;stroke-dasharray:2,2;"/><text x="46" y="1010.639" fill="#000" font-size="13" textLength="187.002">Totals, breakdowns and chart</text><path d="M283.088,1028.381 L283.088,1129.381 L1200.088,1129.381 L1200.088,1038.381 L1190.088,1028.381 L283.088,1028.381" style="stroke:#181818;stroke-width:0.5;" fill="#FEFFDD"/><path d="M1190.088,1028.381 L1190.088,1038.381 L1200.088,1038.381 L1190.088,1028.381" style="stroke:#181818;stroke-width:0.5;" fill="#FEFFDD"/><text x="582.877" y="1045.949" fill="#000" font-size="13" textLength="308.794">Reading history does not fetch investment prices</text><text x="582.877" y="1061.26" fill="#000" font-size="13" textLength="188.138">or rewrite existing snapshots.</text><text x="582.877" y="1076.57" fill="#000" font-size="13" textLength="281.976">One active snapshot per user and YYYY-MM.</text><text x="582.877" y="1091.881" fill="#000" font-size="13" textLength="298.733">Charts use that snapshot, regardless of source.</text><text x="582.877" y="1107.191" fill="#000" font-size="13" textLength="240.944">Previous revisions remain inspectable,</text><text x="582.877" y="1122.502" fill="#000" font-size="13" textLength="171.85">not additional chart points.</text><?plantuml-src TLLDRzmu3BtxLn2vz3BJHNjCa0B9JD0Di6c3DErYWLneYnCBaIMl9Cyq_tuVPNi-ccvEYVL8FZu-Cjbc9_IdJJb4sx0ZyJc-4dj3KPeGZPXbMrvVyO5DgbfhX3OXv3hyhDABzJr7xYYrRCBE-cVQi4jISOCO-fuaLW1aszYUVQQp1y4BST-V4IVwVdlwcX_kLrHpyoBUFFdWwI_kQiC5UtL_MndEN7CIEbk_Ukx2-lh9RotJZPCcH_nPaElhgjBAjFo42dHELyOGKyyfKnTyRYjyNUgZWivfrOQ0dEMfj0uHyD0ULDco6oHLFcIXi9MniKMXH7HJqBcD8lJv-dxCurufXmmfpe7magdXr2x8-gsatA50AfLwySa6_nwWBm6lncwj6L2HcoOCaAHcnxwH1FN_7MmKyxw2DgHCJdjyaAsLNKcQU2l7xCjCIy-Vb3B0tuQwivd-mS_oxcunKLrGw2Lo1Y6wNOzA_EoXhAWRjbQPFla7wHqteZrG4_p6ncuCiHiqAd1CfKNsjNwmivYR40-vHH0eQSAmyn9JQ_jI1pOQyYHmjCzjfh2Pv8KkZv6DMklZXuz51qYeYZq6mw_l4lLe4mgPeB80q4T9okvuv4UoJUpMrqKrrYQXbUOlo3_cLYiWblisRcRGk1S4TtEjPIfs-V0wcaXvJDf8WSuvoIPAq5f0l_0uZEz_L2t1Bh3PEm2Xf_xzcwEdMZOXYdQFF7ic5yJEXHtS1nEvIh2Qz0Ks6MaYzu5bF32OoKqYNUNGgP7WwMAjoJPbS3mO62dR3ZFXhazFVjLAy_BME1TKnX8H7zpnPnXcw5rn1RwgKubKqhj2iMdPFoCDU3P3Z23d5F2BUYjqWHJvOjPgFc2bEU1Buzz0tfJWaycMp_kj7SVx-nBpK3IXD-geghgy74qqdqkQp-NbvUc2ViMkay4Lg0EF_fcG9vlvCDhxa6uwFMzCcn5D0mgyIszgLx_fRyHCYGwkEwbIP9kdMmH9lvpAn-bGrFXdy8A3xySOJ2dcu_Dukz0hJ8Mgcd4MnGHKqUtOI6xQetCuBJ52Yk5tqIBNVZ6Jvpwr8ITT-wyUjwJ95awQl-EEnYB6SGUANIcneXC4uxmFMA36CyRW92KzDIaCiH6Dk5TdXY7j7Qg_TMonkZwffxbsij2ZZh9iu7vWS6IB1DG7wvNbV6p-0m00?></g></svg>